Coordinates
version=1
nRows=12
nColumns=46
inDegrees=yes

Units are S.I. units (second, meters, Newtons, ...)
Angles are in degrees.

endheader
time	pelvis_tilt	pelvis_list	pelvis_rotation	pelvis_tx	pelvis_ty	pelvis_tz	bb_angle	bb_tx	bb_ty	bb_tz	hip_flexion_r	hip_adduction_r	hip_rotation_r	knee_angle_r	knee_angle_r_beta	ankle_angle_r	subtalar_angle_r	mtp_angle_r	crank_angle_r	hip_flexion_l	hip_adduction_l	hip_rotation_l	knee_angle_l	knee_angle_l_beta	ankle_angle_l	subtalar_angle_l	mtp_angle_l	crank_angle_l	lumbar_extension	lumbar_bending	lumbar_rotation	arm_flex_r	arm_add_r	arm_rot_r	elbow_flex_r	pro_sup_r	wrist_flex_r	wrist_dev_r	arm_flex_l	arm_add_l	arm_rot_l	elbow_flex_l	pro_sup_l	wrist_flex_l	wrist_dev_l
      0.00500000	    -24.21382914	      0.17706792	     -0.62149173	      0.05916476	      1.13771722	     -0.22652114	      0.00000000	      0.50000000	      0.00000000	      0.25000000	     87.58972556	      0.18812896	      5.60658277	     79.68628657	      1.39078807	      8.67220688	     -9.99020020	      0.00000000	      0.00000000	     57.42480631	     -5.67894872	      0.07145359	     69.71604869	      1.21677459	     16.59518626	     -4.43139093	      0.00000000	      0.00000000	    -59.56938785	      0.84202952	      1.41701550	     89.47976597	    -17.56384127	     26.13640345	     77.89962941	     32.32702441	      0.00000000	      0.00000000	     89.37196444	    -17.08322566	     25.07127158	     74.89132459	     32.79568644	      0.00000000	      0.00000000
      0.01000000	    -24.24277485	      0.13906384	     -0.63912686	      0.05915908	      1.13769436	     -0.22648417	      0.00000000	      0.50000000	      0.00000000	      0.25000000	     87.61931268	      0.21801249	      5.57121833	     79.68150169	      1.39070456	      8.65454828	     -9.95843995	      0.00000000	      0.00000000	     57.46138091	     -5.72435704	      0.08869433	     69.71913754	      1.21682850	     16.55638979	     -4.46868621	      0.00000000	      0.00000000	    -59.53084352	      0.85287215	      1.52369732	     89.48540716	    -17.66526304	     26.03623494	     77.41563918	     35.10987356	      0.00000000	      0.00000000	     89.37570509	    -17.03618680	     24.97059497	     74.28654715	     35.45137053	      0.00000000	      0.00000000
      0.01500000	    -24.17015761	      0.13368175	     -0.64406090	      0.05916754	      1.13786126	     -0.22648738	      0.00000000	      0.50000000	      0.00000000	      0.25000000	     87.54353259	      0.21837436	      5.55419069	     79.68234570	      1.39071929	      8.64038471	    -10.01968080	      0.00000000	      0.00000000	     57.36786279	     -5.72986931	      0.08544413	     69.69052171	      1.21632906	     16.54578177	     -4.51924186	      0.00000000	      0.00000000	    -59.63765294	      0.85556940	      1.52723653	     89.48403386	    -17.55861458	     25.74761760	     77.28784931	     36.15203467	      0.00000000	      0.00000000	     89.37104367	    -16.92680234	     24.64938321	     74.12684819	     36.47306949	      0.00000000	      0.00000000
      0.02000000	    -24.17313739	     -0.09501792	     -0.65292901	      0.05899892	      1.13765791	     -0.22612991	      0.00000000	      0.50000000	      0.00000000	      0.25000000	     87.54941193	      0.34465145	      5.39745396	     79.72220960	      1.39141504	      8.63954342	    -10.03815773	      0.00000000	      0.00000000	     57.43192651	     -5.82640483	      0.45087565	     69.75832044	      1.21751237	     16.61983082	     -4.56508797	      0.00000000	      0.00000000	    -59.61489739	      0.89041343	      1.69638500	     89.47048700	    -17.62265692	     25.67286783	     77.17739140	     36.50940085	      0.00000000	      0.00000000	     89.38084317	    -16.83901260	     24.54416156	     74.11536493	     36.86556111	      0.00000000	      0.00000000
      0.02500000	    -24.53811633	     -0.73471869	     -1.33063504	      0.05910195	      1.13583369	     -0.22343272	      0.00000000	      0.50000000	      0.00000000	      0.25000000	     87.98074809	      1.40929987	      4.92816742	     79.71521759	      1.39129301	      8.46174684	    -10.27545552	      0.00000000	      0.00000000	     58.21424001	     -6.61527759	      1.08334580	     70.17769945	      1.22483192	     16.31055034	     -2.67204996	      0.00000000	      0.00000000	    -59.17516441	      1.00825797	      2.70886729	     89.49144790	    -17.36536594	     26.13238982	     77.38992688	     36.54961518	      0.00000000	      0.00000000	     89.30867136	    -17.42683465	     24.85014897	     73.91848963	     36.93503083	      0.00000000	      0.00000000
      0.03000000	    -24.17965664	      0.09592100	     -0.69144827	      0.05903144	      1.13781823	     -0.22647575	      0.00000000	      0.50000000	      0.00000000	      0.25000000	     87.61591476	      0.26862032	      5.55638788	     79.76819648	      1.39221767	      8.57940966	     -9.98151083	      0.00000000	      0.00000000	     57.37919337	     -5.77077743	      0.15545064	     69.69357761	      1.21638240	     16.64234938	     -4.32327793	      0.00000000	      0.00000000	    -59.53874411	      0.63352300	      1.64536682	     89.46325067	    -18.05008655	     25.99673805	     77.04685401	     36.46688097	      0.00000000	      0.00000000	     89.41623468	    -16.62787734	     25.03907144	     73.83013404	     36.96796534	      0.00000000	      0.00000000
      0.03500000	    -24.17782731	      0.10573402	     -0.70032755	      0.05902866	      1.13783414	     -0.22650783	      0.00000000	      0.50000000	      0.00000000	      0.25000000	     87.62875275	      0.25636849	      5.56507147	     79.79026902	      1.39260291	      8.65134998	     -9.79229285	      0.00000000	      0.00000000	     57.36427395	     -5.75734935	      0.14109628	     69.66958491	      1.21596365	     16.60204461	     -4.47919040	      0.00000000	      0.00000000	    -59.53975954	      0.62509997	      1.70150885	     89.46520515	    -18.12885431	     25.98094719	     77.04259551	     36.96846005	      0.00000000	      0.00000000	     89.41148377	    -16.52192433	     24.88544800	     73.61195852	     37.44178355	      0.00000000	      0.00000000
      0.04000000	    -24.11364327	      0.05215370	     -0.68398724	      0.05902168	      1.13798740	     -0.22652996	      0.00000000	      0.50000000	      0.00000000	      0.25000000	     87.55526323	      0.25843045	      5.51554079	     79.80126916	      1.39279489	      8.65875138	     -9.85717801	      0.00000000	      0.00000000	     57.29125885	     -5.74988172	      0.23755045	     69.64219448	      1.21548559	     16.61555414	     -4.59149417	      0.00000000	      0.00000000	    -59.65471972	      0.66894552	      1.73010759	     89.45951582	    -18.02355550	     25.64628168	     77.13560128	     37.35531673	      0.00000000	      0.00000000	     89.38760446	    -16.38872120	     24.51897113	     73.70760584	     37.81574248	      0.00000000	      0.00000000
      0.04500000	    -24.07829762	      0.05969364	     -0.68352652	      0.05903005	      1.13808571	     -0.22650668	      0.00000000	      0.50000000	      0.00000000	      0.25000000	     87.53332429	      0.23782199	      5.49877944	     79.81790034	      1.39308516	      8.66427966	     -9.82750185	      0.00000000	      0.00000000	     57.22831440	     -5.73805460	      0.23433360	     69.60156438	      1.21477646	     16.59756853	     -4.67825458	      0.00000000	      0.00000000	    -59.78160911	      0.66196182	      1.74703743	     89.45864911	    -17.95255258	     25.28211516	     77.36732099	     37.94742719	      0.00000000	      0.00000000	     89.37554413	    -16.34411878	     24.09783960	     73.96927809	     38.37455251	      0.00000000	      0.00000000
      0.05000000	    -24.14487259	      0.11866593	     -0.73032645	      0.05905056	      1.13796318	     -0.22643262	      0.00000000	      0.50000000	      0.00000000	      0.25000000	     87.62666711	      0.28004902	      5.57266624	     79.84562717	      1.39356909	      8.66378198	     -9.75136647	      0.00000000	      0.00000000	     57.25505861	     -5.75844976	      0.08620843	     69.57214104	      1.21426293	     16.63067062	     -4.58607686	      0.00000000	      0.00000000	    -59.58574857	      0.59427578	      1.74715771	     89.46656181	    -18.16290448	     25.88753882	     76.91098520	     38.11813693	      0.00000000	      0.00000000	     89.41400071	    -16.44893256	     24.72115068	     73.39599426	     38.55640112	      0.00000000	      0.00000000
      0.05500000	    -24.08180678	      0.05142330	     -0.72800030	      0.05907272	      1.13805007	     -0.22656550	      0.00000000	      0.50000000	      0.00000000	      0.25000000	     87.57054924	      0.25373415	      5.48071048	     79.86977294	      1.39399051	      8.64814474	     -9.76935078	      0.00000000	      0.00000000	     57.15254821	     -5.78395296	      0.04800024	     69.54046739	      1.21371012	     16.75976244	     -4.92592672	      0.00000000	      0.00000000	    -59.75132120	      0.67558950	      1.82816084	     89.45909715	    -18.03673888	     25.33677398	     77.22252492	     38.48885340	      0.00000000	      0.00000000	     89.38349903	    -16.37681169	     24.14386105	     73.76903460	     38.91301016	      0.00000000	      0.00000000
      0.06000000	    -23.97084044	      0.11000263	     -0.78672733	      0.05922819	      1.13833544	     -0.22638670	      0.00000000	      0.50000000	      0.00000000	      0.25000000	     87.45331087	      0.30562543	      5.52708330	     79.88270504	      1.39421622	      8.69272199	     -9.80048829	      0.00000000	      0.00000000	     56.91900260	     -5.81998450	     -0.15642154	     69.42369627	      1.21167208	     16.75565738	     -4.97028481	      0.00000000	      0.00000000	    -59.84788065	      0.57268891	      1.79083494	     89.46669003	    -18.06888526	     25.50051437	     77.09654684	     38.73188171	      0.00000000	      0.00000000	     89.40055540	    -16.36914996	     24.29147283	     73.59426199	     39.14615323	      0.00000000	      0.00000000
